<?xml version="1.0" standalone="no"?>
<!DOCTYPE svg PUBLIC "-//W3C//DTD SVG 20010904//EN"
 "http://www.w3.org/TR/2001/REC-SVG-20010904/DTD/svg10.dtd">
<svg version="1.0" xmlns="http://www.w3.org/2000/svg"
 width="200.000000pt" height="200.000000pt" viewBox="0 0 200.000000 200.000000"
 preserveAspectRatio="xMidYMid meet">
<metadata>
Created by potrace 1.11, written by Peter Selinger 2001-2013
</metadata>
<g transform="translate(0.000000,200.000000) scale(0.100000,-0.100000)"
fill="#000000" stroke="none">
<path d="M1650 1656 c-77 -46 -473 -276 -995 -577 -81 -47 -100 -62 -100 -81
0 -21 16 -28 179 -84 l179 -60 59 -180 c33 -98 66 -185 73 -193 7 -7 20 -11
29 -8 8 3 54 58 101 121 48 64 89 118 93 120 4 2 63 -20 132 -50 69 -29 130
-54 137 -54 17 0 30 27 37 82 4 26 8 53 11 60 2 7 6 29 9 48 9 60 146 834 150
845 5 15 -13 45 -27 45 -7 0 -37 -15 -67 -34z m-409 -440 c-168 -168 -307
-304 -310 -302 -3 2 -66 22 -139 46 -145 48 -145 47 -62 93 25 13 216 124 425
246 209 121 382 221 385 221 3 0 -132 -137 -299 -304z m393 167 c-12 -71 -25
-146 -28 -168 -4 -22 -15 -85 -25 -140 -11 -55 -22 -118 -25 -140 -4 -22 -13
-78 -22 -125 -9 -47 -16 -93 -17 -102 -1 -10 -6 -18 -12 -18 -19 0 -327 135
-327 144 -1 7 472 676 477 676 1 0 -9 -57 -21 -127z m-334 -265 c-84 -117
-166 -230 -182 -251 -20 -25 -35 -62 -45 -105 -27 -130 -24 -122 -38 -82 -9
25 -9 37 -1 42 7 5 6 8 -4 8 -13 0 -50 96 -50 130 0 11 462 478 468 474 2 -2
-65 -99 -148 -216z m-112 -361 l23 -13 -51 -67 c-28 -37 -52 -67 -54 -67 -1 0
4 36 13 80 17 85 24 92 69 67z"/>
<path d="M262 468 c-17 -17 2 -43 52 -73 50 -29 71 -31 80 -9 8 21 -6 37 -59
69 -49 28 -56 30 -73 13z"/>
<path d="M803 433 c-38 -19 -46 -35 -29 -59 12 -15 17 -16 44 -5 46 19 68 47
52 66 -15 18 -26 18 -67 -2z"/>
<path d="M476 364 c-10 -26 13 -43 70 -49 40 -5 54 -3 67 10 34 33 24 41 -64
50 -58 6 -67 5 -73 -11z"/>
</g>
</svg>
